P3
3 2
255
0 0 0 255 0 0 0 255 0 
255 255 0 255 0 255 25 255 255 